PathFileType	3	(X/Y/Z)	D:\Jess\PFP\Labelled\PA07\20250627\SRRun01.trc
DataRate	CameraRate	NumFrames	NumMarkers	Units	OrigDataRate	OrigDataStartFrame	OrigNumFrames
250.0	250.0	4	37	mm	250.0	36250	2501
Frame#	Time	C7			T10			CLAV			LSHO			RSHO			LASIS			RASIS			LPSIS			RPSIS			LILCR			RILCR			LGTR			LTHI			LLTHI			LLEP			LMEP			LPSH			LLSH			LDSH			LLMAL			LMMAL			LTOE			L5TH			LHEE			RGTR			RTHI			RLTHI			RLEP			RMEP			RPSH			RLSH			RDSH			RLMAL			RMMAL			RTOE			R5TH			RHEE			
		X1	Y1	Z1	X2	Y2	Z2	X3	Y3	Z3	X4	Y4	Z4	X5	Y5	Z5	X6	Y6	Z6	X7	Y7	Z7	X8	Y8	Z8	X9	Y9	Z9	X10	Y10	Z10	X11	Y11	Z11	X12	Y12	Z12	X13	Y13	Z13	X14	Y14	Z14	X15	Y15	Z15	X16	Y16	Z16	X17	Y17	Z17	X18	Y18	Z18	X19	Y19	Z19	X20	Y20	Z20	X21	Y21	Z21	X22	Y22	Z22	X23	Y23	Z23	X24	Y24	Z24	X25	Y25	Z25	X26	Y26	Z26	X27	Y27	Z27	X28	Y28	Z28	X29	Y29	Z29	X30	Y30	Z30	X31	Y31	Z31	X32	Y32	Z32	X33	Y33	Z33	X34	Y34	Z34	X35	Y35	Z35	X36	Y36	Z36	X37	Y37	Z37	

1251	144.996	831.6905699678475	1404.966726998099	-791.1514789004842	850.2004997155962	1150.827160002964	-745.6270889969348	804.7684028700238	1301.144051350021	-931.5811848114131	658.2097321391557	1378.526895305935	-807.4526600358105	973.5664709057068	1381.595361567335	-887.5422457843747	714.5493873563307	928.9436356036372	-881.3017702648542	920.5547659405574	909.7588567951643	-909.58366270873	823.8885227045973	975.5905005689153	-734.6446456306346	865.3751873874404	970.9362969666992	-741.6653890629295	678.9927141668044	996.281896966583	-831.9386811518766	983.1068970673768	994.6266289955262	-856.5520109695075	654.682976889213	821.299596765533	-829.1896499496158	719.7136400807785	688.9960929175567	-955.198243836418	675.5489252043084	613.943811029978	-888.9321076899596	695.3517276850407	484.35028884795	-908.8245327369184	nan	nan	nan	758.3871591051707	387.1280183930436	-962.7052838161756	709.8625450266478	278.9033798789504	-878.3129613516828	776.3852541258917	207.423987311186	-927.7814152747674	762.0357387183305	102.1332271719115	-870.8017561057289	nan	nan	nan	771.01379765354	69.61033216311075	-1020.659923080215	734.9529248299616	40.96102279072703	-997.2737186936681	823.6249426648205	83.22324533737647	-798.217672164494	996.5789901337639	796.6060270382022	-829.6797881305156	911.1887870729381	634.689587214776	-899.130124134939	967.2869413447925	577.681040731815	-807.3724320615612	948.6048521122477	468.3849595034952	-758.3346349467233	nan	nan	nan	912.1944087786698	368.3410909817597	-719.5031207153379	963.8200166876005	383.0257059230265	-578.3348144006363	916.0344924462275	300.5472532214359	-530.4800962365046	946.1313073260876	299.4476622604333	-420.5379915098699	nan	nan	nan	931.1874097880223	149.4751592415629	-412.4458777147298	963.4892689075244	157.9923554757637	-372.0440629391393	893.157463913631	368.8558196875416	-383.8025097434018	
1252	145	831.2113819924853	1401.763374094722	-790.405075833638	849.9580227658647	1147.887631398251	-745.2457748835386	804.5917168381739	1297.91994698915	-931.3801590809112	656.9142924870827	1374.999720214759	-807.013763965754	973.4151709983183	1378.775895788346	-886.423276124238	714.2052159165574	926.5022948226508	-880.6865603656413	920.3404075006886	906.3828714530896	-909.3090222736097	824.1064530641492	972.1385608488658	-734.0960614455222	865.5919397528818	967.3294024795759	-741.0719388971871	678.6798583552846	992.8641034075982	-831.509093721978	983.2478176038596	990.545100058511	-856.4319591605287	654.6134701266211	818.7774161523934	-828.9691208215871	720.4350092718852	687.0724364669056	-955.537808180358	675.8936671955732	611.801809011227	-889.5148322103485	695.9622924477006	482.0602049249886	-908.9527647252995	nan	nan	nan	759.8549260697138	384.2351361639389	-960.4857628070465	710.7975817900236	277.7367747506421	-874.1805523950732	777.9905480106631	205.2974050953372	-920.9466160382772	763.2515496622234	101.8750357770134	-861.1299451429124	nan	nan	nan	772.023868163153	67.80734211917375	-1010.343886005442	735.3133732159265	40.19331853821988	-986.4721947028505	824.3829256114219	83.57253099880234	-787.6526986490021	996.1116721128474	792.4576756166526	-830.6079793648335	911.6598670639161	632.3551236720195	-902.3110789568639	967.2560421845093	574.012280137517	-811.0105689463905	948.6751686207861	464.8127965983412	-764.2708499920451	nan	nan	nan	912.6337051203254	365.184560552181	-725.3974158071436	963.7947675958882	381.7561394786062	-584.0804926713375	916.4775199624821	299.8590240275664	-535.5406249698553	946.1402041978311	300.5889835213354	-425.4660718740332	nan	nan	nan	933.432963275128	150.621578699422	-416.5477485558792	965.5162657063884	159.897835882564	-376.1111962190927	891.8826042814512	369.6184751112615	-389.3511336525721	
1253	145.004	830.7215076247412	1398.671421993538	-789.7122004822127	849.7094609253992	1145.067452256918	-744.8324746067282	804.4280170559184	1294.745152065935	-931.1830440134007	655.6084629982983	1371.573741711872	-806.6519240107314	973.2680015009795	1376.039137973483	-885.3281142755189	713.8976744780292	924.1055131073446	-879.9970373823683	920.1584429149614	903.0156912317565	-908.9465261990782	824.3373679274891	968.8043334166741	-733.4873296428467	865.8195092534535	963.8463512604193	-740.4131593571618	678.3777150600803	989.4112077854805	-830.9878621974018	983.3888700586454	986.4899422672469	-856.2346116561057	654.5476226342579	816.3182234504578	-828.6341877425373	721.0467284057753	685.0731128695369	-955.6681874479145	676.1656555020639	609.6734102482376	-889.8613990795322	696.5449052389686	479.8331659527609	-908.8999848349636	nan	nan	nan	761.2381191227314	381.4236768871654	-958.0498005603544	711.6420199197029	276.7097143355613	-869.8305623951993	779.4513899926679	203.3361066500427	-913.8690586834315	764.3055431236264	101.7814068218744	-851.2769688732263	nan	nan	nan	772.8653386221923	66.36967957548428	-999.8480929184722	735.5768423371932	39.68487424370426	-975.5725854690927	824.9867900938158	83.92235754851819	-776.9542943628676	995.6496804310488	788.3553622999373	-831.4400504091998	912.1488323468993	630.1963269013897	-905.5112838151887	967.2356459182264	570.5004941253429	-814.7125419345125	948.7805112834362	461.395672719757	-770.3381164668875	nan	nan	nan	913.0180044094042	362.1853900986197	-731.5086782518677	963.7857902973224	380.4476116905148	-590.0815480830536	916.8734431436313	299.1466319124966	-540.9166222373061	946.1201026594908	301.5821041905489	-430.750314998459	nan	nan	nan	935.6305579454629	151.6435977481505	-421.2251721628309	967.5426464063994	161.6231539259643	-380.7895587722786	890.6286368181248	370.1724481129815	-395.1063645177625	
1254	145.008	830.2150286924116	1395.719103568933	-789.0876442381839	849.4510900634145	1142.393065755376	-744.3844233559473	804.2796651215932	1291.647001398288	-930.9871531637833	654.2999239235664	1368.274728544957	-806.3864328668967	973.1203406906918	1373.409627660271	-884.2673529694443	713.632202991365	921.7720406795385	-879.2434692855948	920.0161214346318	899.6965283686035	-908.4974156733319	824.5778797243519	965.6209515835986	-732.8241320424395	866.0537096921058	960.522878757796	-739.6956657284711	678.0935657333237	985.9536945808781	-830.3708095583312	983.5317136151587	982.5126255957848	-855.9306859952807	654.4864469654774	813.9392783163484	-828.1777149926536	721.5239821054	682.9962545174149	-955.5647822849749	676.3667066445513	607.5621315587364	-889.9252513407167	697.0883677002429	477.6657512604231	-908.6018798219221	nan	nan	nan	762.5102596821748	378.6936681048737	-955.3620967559066	712.3862616631189	275.806148497338	-865.2462389143767	780.7491079941026	201.5378797935184	-906.563050370095	765.1877325560674	101.8312887131077	-841.2848972434758	nan	nan	nan	773.5397310582468	65.26497196940382	-989.2186673562968	735.7514524380209	39.39697746220334	-964.6167862959129	825.4406658403163	84.26729487981447	-766.1673509389417	995.2002960026285	784.3438470209645	-832.1643441866651	912.6395382360251	628.2401117108287	-908.7255763635017	967.2226043201839	567.1815052406679	-818.4853014576087	948.9066354636136	458.1638056996277	-776.5372536055115	nan	nan	nan	913.3350693920536	359.3675834351196	-737.8347377971913	963.7898619300522	379.1193277583666	-596.3342123355438	917.2173026827792	298.4179749076929	-546.6030635323364	946.0759675222998	302.4183316817275	-436.3832305189974	nan	nan	nan	937.7542771465919	152.5298372650963	-426.4816164710301	969.5481102888592	163.1462052698427	-386.082462627248	889.4225743511594	370.5175297447828	-401.0479489233235	
